HIERARCHY
ROOT Root
{
  OFFSET 0.0 0.0 0.0
  CHANNELS 6 Xposition Yposition Zposition Zrotation Yrotation Xrotation
  JOINT Hips
  {
    OFFSET 0.0 100.0 0.0
    CHANNELS 6 Xposition Yposition Zposition Zrotation Yrotation Xrotation
    JOINT Spine1
    {
      OFFSET 5.003913 -0.037094 -0.013727
      CHANNELS 3 Zrotation Yrotation Xrotation
      JOINT Spine2
      {
        OFFSET 7.125363 -1e-06 0.0
        CHANNELS 3 Zrotation Yrotation Xrotation
        JOINT Chest
        {
          OFFSET 7.594027 1e-06 0.0
          CHANNELS 3 Zrotation Yrotation Xrotation
          JOINT Neck1
          {
            OFFSET 26.313086 -0.460272 -0.181672
            CHANNELS 3 Zrotation Yrotation Xrotation
            JOINT Neck2
            {
              OFFSET 8.045911 0.0 0.0
              CHANNELS 3 Zrotation Yrotation Xrotation
              JOINT Head
              {
                OFFSET 6.432774 0.0 0.0
                CHANNELS 3 Zrotation Yrotation Xrotation
                JOINT HeadEnd
                {
                  OFFSET 16.169773 0.06451 0.00362
                  CHANNELS 3 Zrotation Yrotation Xrotation
                }
                JOINT Jaw
                {
                  OFFSET 0.108741 3.12938 0.002639
                  CHANNELS 3 Zrotation Yrotation Xrotation
                }
                JOINT LeftEye
                {
                  OFFSET 4.45173 8.166359 3.206392
                  CHANNELS 3 Zrotation Yrotation Xrotation
                }
                JOINT RightEye
                {
                  OFFSET 4.436895 8.135758 -3.222429
                  CHANNELS 3 Zrotation Yrotation Xrotation
                }
              }
            }
          }
          JOINT LeftShoulder
          {
            OFFSET 23.218927 5.195579 1.621656
            CHANNELS 3 Zrotation Yrotation Xrotation
            JOINT LeftArm
            {
              OFFSET 15.902118 2e-06 -2e-06
              CHANNELS 3 Zrotation Yrotation Xrotation
              JOINT LeftForeArm
              {
                OFFSET 28.739307 0.0 -1e-06
                CHANNELS 3 Zrotation Yrotation Xrotation
                JOINT LeftHand
                {
                  OFFSET 27.093981 -4e-06 0.0
                  CHANNELS 3 Zrotation Yrotation Xrotation
                  JOINT LeftHandThumb1
                  {
                    OFFSET 2.276781 3.380274 0.83384
                    CHANNELS 3 Zrotation Yrotation Xrotation
                    JOINT LeftHandThumb2
                    {
                      OFFSET 4.705309 -1e-06 -1e-06
                      CHANNELS 3 Zrotation Yrotation Xrotation
                      JOINT LeftHandThumb3
                      {
                        OFFSET 2.798515 0.0 3e-06
                        CHANNELS 3 Zrotation Yrotation Xrotation
                        JOINT LeftHandThumbEnd
                        {
                          OFFSET 3.180793 4e-06 -4e-06
                          CHANNELS 3 Zrotation Yrotation Xrotation
                        }
                      }
                    }
                  }
                  JOINT LeftHandIndex1
                  {
                    OFFSET 3.247786 2.352677 0.137192
                    CHANNELS 3 Zrotation Yrotation Xrotation
                    JOINT LeftHandIndex2
                    {
                      OFFSET 6.367095 1e-06 0.0
                      CHANNELS 3 Zrotation Yrotation Xrotation
                      JOINT LeftHandIndex3
                      {
                        OFFSET 3.662364 0.0 0.0
                        CHANNELS 3 Zrotation Yrotation Xrotation
                        JOINT LeftHandIndex4
                        {
                          OFFSET 2.329242 4e-06 -4e-06
                          CHANNELS 3 Zrotation Yrotation Xrotation
                          JOINT LeftHandIndexEnd
                          {
                            OFFSET 2.767823 1e-06 0.0
                            CHANNELS 3 Zrotation Yrotation Xrotation
                          }
                        }
                      }
                    }
                  }
                  JOINT LeftHandMiddle1
                  {
                    OFFSET 3.163612 0.945023 -0.406112
                    CHANNELS 3 Zrotation Yrotation Xrotation
                    JOINT LeftHandMiddle2
                    {
                      OFFSET 6.276789 3e-06 0.0
                      CHANNELS 3 Zrotation Yrotation Xrotation
                      JOINT LeftHandMiddle3
                      {
                        OFFSET 4.35652 -1e-06 4e-06
                        CHANNELS 3 Zrotation Yrotation Xrotation
                        JOINT LeftHandMiddle4
                        {
                          OFFSET 2.996877 0.0 8e-06
                          CHANNELS 3 Zrotation Yrotation Xrotation
                          JOINT LeftHandMiddleEnd
                          {
                            OFFSET 2.323256 3e-06 -4e-06
                            CHANNELS 3 Zrotation Yrotation Xrotation
                          }
                        }
                      }
                    }
                  }
                  JOINT LeftHandRing1
                  {
                    OFFSET 2.882606 -0.309162 0.107445
                    CHANNELS 3 Zrotation Yrotation Xrotation
                    JOINT LeftHandRing2
                    {
                      OFFSET 6.033198 0.0 4e-06
                      CHANNELS 3 Zrotation Yrotation Xrotation
                      JOINT LeftHandRing3
                      {
                        OFFSET 4.350578 3e-06 0.0
                        CHANNELS 3 Zrotation Yrotation Xrotation
                        JOINT LeftHandRing4
                        {
                          OFFSET 2.651321 2e-06 -7e-06
                          CHANNELS 3 Zrotation Yrotation Xrotation
                          JOINT LeftHandRingEnd
                          {
                            OFFSET 1.937663 1e-06 -4e-06
                            CHANNELS 3 Zrotation Yrotation Xrotation
                          }
                        }
                      }
                    }
                  }
                  JOINT LeftHandPinky1
                  {
                    OFFSET 2.865315 -1.525436 0.575687
                    CHANNELS 3 Zrotation Yrotation Xrotation
                    JOINT LeftHandPinky2
                    {
                      OFFSET 5.54936 1e-06 -8e-06
                      CHANNELS 3 Zrotation Yrotation Xrotation
                      JOINT LeftHandPinky3
                      {
                        OFFSET 3.070974 0.0 -4e-06
                        CHANNELS 3 Zrotation Yrotation Xrotation
                        JOINT LeftHandPinky4
                        {
                          OFFSET 1.549672 1e-06 0.0
                          CHANNELS 3 Zrotation Yrotation Xrotation
                          JOINT LeftHandPinkyEnd
                          {
                            OFFSET 1.952123 0.0 0.0
                            CHANNELS 3 Zrotation Yrotation Xrotation
                          }
                        }
                      }
                    }
                  }
                }
              }
            }
          }
          JOINT RightShoulder
          {
            OFFSET 23.161716 5.296122 -1.380114
            CHANNELS 3 Zrotation Yrotation Xrotation
            JOINT RightArm
            {
              OFFSET -16.027195 -2e-06 1.1e-05
              CHANNELS 3 Zrotation Yrotation Xrotation
              JOINT RightForeArm
              {
                OFFSET -28.736639 4e-06 2e-06
                CHANNELS 3 Zrotation Yrotation Xrotation
                JOINT RightHand
                {
                  OFFSET -27.133619 6e-06 0.0
                  CHANNELS 3 Zrotation Yrotation Xrotation
                  JOINT RightHandThumb1
                  {
                    OFFSET -2.274328 -3.351035 -0.83067
                    CHANNELS 3 Zrotation Yrotation Xrotation
                    JOINT RightHandThumb2
                    {
                      OFFSET -4.703594 -3e-06 2e-06
                      CHANNELS 3 Zrotation Yrotation Xrotation
                      JOINT RightHandThumb3
                      {
                        OFFSET -2.794935 -4e-06 -3e-06
                        CHANNELS 3 Zrotation Yrotation Xrotation
                        JOINT RightHandThumbEnd
                        {
                          OFFSET -3.183852 4e-06 1e-06
                          CHANNELS 3 Zrotation Yrotation Xrotation
                        }
                      }
                    }
                  }
                  JOINT RightHandIndex1
                  {
                    OFFSET -3.253496 -2.33755 -0.127667
                    CHANNELS 3 Zrotation Yrotation Xrotation
                    JOINT RightHandIndex2
                    {
                      OFFSET -6.344434 0.0 0.0
                      CHANNELS 3 Zrotation Yrotation Xrotation
                      JOINT RightHandIndex3
                      {
                        OFFSET -3.654871 0.0 -8e-06
                        CHANNELS 3 Zrotation Yrotation Xrotation
                        JOINT RightHandIndex4
                        {
                          OFFSET -2.327586 -1e-06 0.0
                          CHANNELS 3 Zrotation Yrotation Xrotation
                          JOINT RightHandIndexEnd
                          {
                            OFFSET -2.770001 3e-06 8e-06
                            CHANNELS 3 Zrotation Yrotation Xrotation
                          }
                        }
                      }
                    }
                  }
                  JOINT RightHandMiddle1
                  {
                    OFFSET -3.168223 -0.944764 0.411762
                    CHANNELS 3 Zrotation Yrotation Xrotation
                    JOINT RightHandMiddle2
                    {
                      OFFSET -6.266691 -1e-06 -4e-06
                      CHANNELS 3 Zrotation Yrotation Xrotation
                      JOINT RightHandMiddle3
                      {
                        OFFSET -4.348901 0.0 0.0
                        CHANNELS 3 Zrotation Yrotation Xrotation
                        JOINT RightHandMiddle4
                        {
                          OFFSET -3.00024 2e-06 -4e-06
                          CHANNELS 3 Zrotation Yrotation Xrotation
                          JOINT RightHandMiddleEnd
                          {
                            OFFSET -2.321477 -4e-06 -4e-06
                            CHANNELS 3 Zrotation Yrotation Xrotation
                          }
                        }
                      }
                    }
                  }
                  JOINT RightHandRing1
                  {
                    OFFSET -2.885654 0.293261 -0.119232
                    CHANNELS 3 Zrotation Yrotation Xrotation
                    JOINT RightHandRing2
                    {
                      OFFSET -6.032835 -1e-06 -4e-06
                      CHANNELS 3 Zrotation Yrotation Xrotation
                      JOINT RightHandRing3
                      {
                        OFFSET -4.33881 0.0 -4e-06
                        CHANNELS 3 Zrotation Yrotation Xrotation
                        JOINT RightHandRing4
                        {
                          OFFSET -2.654903 -4e-06 -4e-06
                          CHANNELS 3 Zrotation Yrotation Xrotation
                          JOINT RightHandRingEnd
                          {
                            OFFSET -1.935122 0.0 4e-06
                            CHANNELS 3 Zrotation Yrotation Xrotation
                          }
                        }
                      }
                    }
                  }
                  JOINT RightHandPinky1
                  {
                    OFFSET -2.866241 1.503904 -0.60527
                    CHANNELS 3 Zrotation Yrotation Xrotation
                    JOINT RightHandPinky2
                    {
                      OFFSET -5.553177 -2e-06 0.0
                      CHANNELS 3 Zrotation Yrotation Xrotation
                      JOINT RightHandPinky3
                      {
                        OFFSET -3.062664 -1e-06 -4e-06
                        CHANNELS 3 Zrotation Yrotation Xrotation
                        JOINT RightHandPinky4
                        {
                          OFFSET -1.546529 2e-06 4e-06
                          CHANNELS 3 Zrotation Yrotation Xrotation
                          JOINT RightHandPinkyEnd
                          {
                            OFFSET -1.952341 0.0 -4e-06
                            CHANNELS 3 Zrotation Yrotation Xrotation
                          }
                        }
                      }
                    }
                  }
                }
              }
            }
          }
        }
      }
    }
    JOINT LeftLeg
    {
      OFFSET -8.443107 2.567604 10.043214
      CHANNELS 3 Zrotation Yrotation Xrotation
      JOINT LeftShin
      {
        OFFSET 43.229198 1e-06 -1e-06
        CHANNELS 3 Zrotation Yrotation Xrotation
        JOINT LeftFoot
        {
          OFFSET 42.298611 1e-06 1e-06
          CHANNELS 3 Zrotation Yrotation Xrotation
          JOINT LeftToeBase
          {
            OFFSET 14.165858 1e-06 0.0
            CHANNELS 3 Zrotation Yrotation Xrotation
            JOINT LeftToeEnd
            {
              OFFSET 6.7141 -0.234461 0.0
              CHANNELS 3 Zrotation Yrotation Xrotation
            }
          }
        }
      }
    }
    JOINT RightLeg
    {
      OFFSET -8.303923 2.592729 -10.047278
      CHANNELS 3 Zrotation Yrotation Xrotation
      JOINT RightShin
      {
        OFFSET -43.369682 0.0 1e-06
        CHANNELS 3 Zrotation Yrotation Xrotation
        JOINT RightFoot
        {
          OFFSET -42.260784 4e-06 2e-06
          CHANNELS 3 Zrotation Yrotation Xrotation
          JOINT RightToeBase
          {
            OFFSET -14.222245 -2e-06 -1e-06
            CHANNELS 3 Zrotation Yrotation Xrotation
            JOINT RightToeEnd
            {
              OFFSET -6.660062 0.232574 -2e-06
              CHANNELS 3 Zrotation Yrotation Xrotation
            }
          }
        }
      }
    }
  }
}
MOTION
Frames: 5
Frame Time: 0.03333333333333333
0.0 0.0 0.0 0.0 -0.0 0.0 -0.950979 48.144497 -1.46544 94.507378 -67.356339 85.809219 7.559327 0.113123 0.299258 -6.242831 -0.41384 0.457968 15.805427 -1.269957 -2.159896 20.314104 0.989822 2.406794 -2.714346 -0.180686 1.359929 -24.402678 3.886582 0.452044 6e-06 -0.0 -0.0 -0.205946 0.003736 0.008464 -0.262688 0.159402 0.020064 -0.293054 -0.155825 -0.004068 -48.455471 -70.716248 50.480137 95.939079 -9.305164 -33.42271 7.10793 -0.574944 0.001302 58.801323 73.971275 53.615929 17.636621 -26.322725 52.411186 -19.466661 -14.395597 29.410393 -1e-06 -8.774821 -2e-06 15.233316 -17.849871 6.594421 -0.609777 -1.795654 -3.889327 -4.807086 -11.046807 -2.937851 4e-06 -20.976013 1e-06 -5.019969 -25.033556 -4.03188 6e-06 1e-06 -1e-06 -10.634533 -5.686968 -3.565586 10.573274 -17.922951 -3.113901 4e-06 -13.821205 1e-06 -0.501775 -31.181498 -4.027017 -10.249231 -57.676773 6.583781 -13.982712 -7.150198 -2.875041 13.772727 -8.401491 -3.218242 0.347736 -34.211544 0.771653 -0.963027 -17.733362 2.621019 -0.0 0.0 -1e-06 -17.346418 -20.095215 -4.201782 21.757555 -1.638374 3.866426 1e-06 -6.338822 0.0 -1.697588 -22.591742 -6.194005 -1e-06 -7e-06 -2e-06 133.519852 -66.167496 48.547703 99.18512 -8.90357 -21.936687 7.190076 -0.764839 -0.082064 35.511803 73.46537 30.579376 22.182106 -20.375887 49.933304 -16.701813 -16.743528 28.47653 -2e-06 -12.6906 0.0 16.706161 -17.538097 2.412768 -0.105919 -1.513855 -4.27588 -5.039041 -5.612871 -2.953557 4e-06 -11.020525 -2e-06 -6.111297 -15.895334 -3.840469 -0.0 0.0 -1e-06 -10.283368 -5.680288 -4.341836 11.028293 -11.302401 -2.372633 -1.384268 -14.238577 -6.32012 -0.625439 -26.924185 -3.827599 -4.437762 -49.203918 -3.804769 -13.708522 -7.363474 -3.720938 18.141148 -14.052739 -3.242676 6e-06 -18.787271 -2e-06 -0.429711 -8.456043 2.555503 -0.0 1e-06 0.0 -15.923534 -20.094481 -5.473583 30.419207 -7.190822 1.735924 3e-06 -8.162922 -1e-06 -1.861902 -22.861469 -6.167941 -1e-06 -4e-06 -1e-06 106.711487 -4.851394 5.771233 119.535385 -0.24728 0.258393 -102.964737 5.950147 1.033316 -25.290525 1.676019 1.489122 -0.999999 0.0 -0.0 -72.708839 -8.472572 0.149475 116.971786 -0.178997 0.179091 -86.649765 9.009483 -9.838994 -17.50539 0.789187 1.835366 -1.000002 0.0 -0.0 
0.0 0.0 0.0 0.0 -0.0 0.0 -0.902072 48.136269 -1.389806 94.397659 -67.439674 85.851311 7.502075 0.140498 0.31636 -6.287399 -0.420075 0.483307 15.853046 -1.296735 -2.084455 20.27429 0.855589 2.312321 -2.706447 -0.175365 1.346136 -24.295856 3.945884 0.382926 6e-06 -0.0 -0.0 -0.207721 -0.045688 0.015977 -0.244035 0.109721 0.02754 -0.287235 -0.20264 0.002234 -48.60701 -70.760437 50.853333 96.086723 -9.092506 -33.835648 6.926284 -0.466492 0.003295 59.816216 73.39032 54.449799 17.636627 -26.322725 52.411194 -19.466658 -14.395597 29.410389 -1e-06 -8.774821 -2e-06 15.175421 -17.936867 6.642103 -0.609777 -1.795653 -3.889328 -4.807088 -11.046809 -2.937851 2e-06 -20.976013 1e-06 -5.019969 -25.033556 -4.031882 6e-06 -0.0 -0.0 -10.634532 -5.686969 -3.565587 10.573272 -17.922951 -3.113901 3e-06 -13.821209 -1e-06 -0.501778 -31.181505 -4.027016 -10.199337 -57.839428 6.551431 -13.982713 -7.150198 -2.875042 13.772727 -8.401491 -3.218241 0.347735 -34.21154 0.771652 -0.963029 -17.733366 2.621019 -0.0 0.0 1e-06 -17.346416 -20.095215 -4.201784 21.757555 -1.638377 3.866429 1e-06 -6.338822 1e-06 -1.697588 -22.59174 -6.194006 -1e-06 -6e-06 -2e-06 133.68605 -66.072739 48.517719 99.183434 -8.803504 -22.250074 7.177518 -0.666611 -0.066867 35.849411 73.271217 30.78772 22.182121 -20.375904 49.933327 -16.701818 -16.743532 28.476538 -4e-06 -12.690605 -1e-06 16.64201 -17.540874 2.429232 -0.10592 -1.513856 -4.275882 -5.039042 -5.612873 -2.953557 4e-06 -11.020527 -1e-06 -6.111298 -15.895334 -3.840471 -1e-06 -0.0 -1e-06 -10.283373 -5.680291 -4.34184 11.028297 -11.302407 -2.372633 -1.384269 -14.238581 -6.320122 -0.625439 -26.924194 -3.827601 -4.508162 -49.275234 -3.728457 -13.708527 -7.363477 -3.720941 18.141153 -14.052739 -3.242675 6e-06 -18.787277 -1e-06 -0.429712 -8.456047 2.555504 1e-06 1e-06 0.0 -15.923536 -20.094484 -5.473587 30.419218 -7.190827 1.735927 3e-06 -8.162924 -0.0 -1.861904 -22.861473 -6.167942 0.0 -3e-06 -1e-06 106.703224 -4.886232 5.700843 119.446381 -0.284846 0.266805 -102.761948 5.885544 1.096904 -24.99827 1.690005 1.454549 -0.999999 -0.0 0.0 -72.721062 -8.437461 0.126935 116.826332 -0.190779 0.163176 -86.261284 9.038176 -9.737025 -17.518448 0.779831 1.833304 -1.000002 0.0 -0.0 
0.0 0.0 0.0 0.0 -0.0 0.0 -0.826275 48.118973 -1.329776 94.412399 -67.496437 85.826874 7.421495 0.1526 0.340251 -6.324475 -0.405254 0.517014 15.911708 -1.338029 -2.056222 20.274332 0.792813 2.22568 -2.712118 -0.219605 1.325932 -24.29179 3.955093 0.320721 6e-06 0.0 -0.0 -0.204868 -0.085955 0.022557 -0.26301 0.071256 0.026767 -0.306049 -0.242857 0.01327 -48.427795 -70.777031 50.809483 96.160713 -9.006024 -33.972675 6.828055 -0.408158 0.010216 59.767529 73.121323 54.123169 17.636627 -26.322721 52.411179 -19.46665 -14.395594 29.410378 -1e-06 -8.774818 -2e-06 15.167641 -17.969255 6.642397 -0.609776 -1.795653 -3.889328 -4.807087 -11.046806 -2.93785 3e-06 -20.976011 2e-06 -5.019967 -25.033546 -4.031881 6e-06 -1e-06 0.0 -10.634529 -5.686969 -3.565587 10.573271 -17.922947 -3.113899 3e-06 -13.821202 1e-06 -0.501776 -31.181494 -4.027017 -10.100648 -57.94603 6.500312 -13.982711 -7.150195 -2.875042 13.772725 -8.401489 -3.218241 0.347734 -34.211536 0.771655 -0.963028 -17.733362 2.62102 0.0 0.0 -1e-06 -17.346413 -20.095211 -4.201782 21.757553 -1.638378 3.866428 1e-06 -6.338824 1e-06 -1.697588 -22.591734 -6.194005 -1e-06 -7e-06 -0.0 133.94223 -66.040329 48.374882 99.013832 -8.767545 -22.422045 7.283158 -0.647786 -0.060323 36.378971 73.225151 31.568916 22.1821 -20.375896 49.933327 -16.701817 -16.74353 28.476534 -3e-06 -12.690599 1e-06 16.597469 -17.485807 2.46005 -0.105919 -1.513859 -4.275881 -5.039039 -5.612869 -2.953557 5e-06 -11.020519 -3e-06 -6.111295 -15.895329 -3.840471 -0.0 0.0 2e-06 -10.283367 -5.680288 -4.341839 11.028294 -11.302403 -2.372635 -1.384267 -14.238579 -6.32012 -0.625435 -26.924183 -3.827602 -4.526591 -49.306656 -3.649581 -13.708521 -7.363476 -3.720938 18.14115 -14.052732 -3.242678 7e-06 -18.78727 -3e-06 -0.429712 -8.456041 2.555503 0.0 1e-06 -0.0 -15.92353 -20.094479 -5.473584 30.419205 -7.190821 1.735922 4e-06 -8.162921 -1e-06 -1.861903 -22.861464 -6.16794 -1e-06 -3e-06 -1e-06 106.722427 -4.836117 5.569921 119.39769 -0.315057 0.267916 -102.715034 5.79406 1.137196 -24.942797 1.69507 1.442279 -0.999998 -0.0 -0.0 -72.718201 -8.470275 0.201414 116.746033 -0.198963 0.168926 -86.129433 9.118434 -9.733864 -17.624573 0.769789 1.833368 -1.000002 0.0 0.0 
0.0 0.0 0.0 0.0 -0.0 0.0 -0.758972 48.098389 -1.279265 94.361572 -67.552307 85.889938 7.34353 0.168644 0.362424 -6.367703 -0.395453 0.540388 15.961185 -1.328584 -2.054636 20.248898 0.731301 2.150176 -2.716749 -0.26203 1.290176 -24.361952 3.939928 0.287499 6e-06 0.0 -0.0 -0.202347 -0.116726 0.02744 -0.298362 0.042531 0.020756 -0.336162 -0.275077 0.026516 -48.295834 -70.782692 50.778259 96.210159 -8.983017 -34.094158 6.820316 -0.35908 0.011562 59.674385 72.914124 54.029507 17.636625 -26.322733 52.411198 -19.46666 -14.395596 29.410393 -1e-06 -8.77482 -1e-06 15.152524 -17.954063 6.630519 -0.609776 -1.795654 -3.889327 -4.807089 -11.046809 -2.937851 3e-06 -20.976015 2e-06 -5.01997 -25.03356 -4.031882 6e-06 -0.0 2e-06 -10.634535 -5.686969 -3.565587 10.573272 -17.922949 -3.113899 2e-06 -13.821206 1e-06 -0.501779 -31.181498 -4.027015 -10.005938 -57.971588 6.431352 -13.982714 -7.150197 -2.875042 13.77273 -8.401491 -3.218242 0.347734 -34.211555 0.771654 -0.963029 -17.733368 2.621019 -0.0 -0.0 -1e-06 -17.346416 -20.095215 -4.201783 21.757555 -1.638375 3.866428 1e-06 -6.338823 1e-06 -1.697588 -22.591738 -6.194006 -1e-06 -6e-06 -1e-06 134.153107 -66.034698 48.20499 98.803627 -8.832977 -22.513899 7.485082 -0.6377 -0.05679 36.71199 73.203171 32.157536 22.182117 -20.375898 49.933327 -16.701815 -16.743528 28.476532 -3e-06 -12.690601 -1e-06 16.597469 -17.435974 2.485185 -0.105919 -1.513859 -4.275882 -5.039041 -5.612871 -2.953556 4e-06 -11.020525 -2e-06 -6.111299 -15.89533 -3.840472 0.0 -2e-06 0.0 -10.283371 -5.680291 -4.341838 11.028295 -11.302406 -2.372633 -1.384269 -14.238584 -6.320122 -0.62544 -26.924198 -3.827602 -4.514148 -49.352856 -3.580934 -13.708524 -7.363479 -3.72094 18.14115 -14.052739 -3.242674 5e-06 -18.787275 -2e-06 -0.429712 -8.456044 2.555504 1e-06 -0.0 -0.0 -15.923536 -20.094484 -5.473584 30.419218 -7.190827 1.735926 4e-06 -8.162929 -1e-06 -1.861902 -22.861473 -6.167945 0.0 -4e-06 -2e-06 106.719254 -4.770969 5.510616 119.361656 -0.325713 0.27153 -102.637093 5.732127 1.161714 -25.106306 1.696524 1.441273 -0.999998 0.0 -0.0 -72.700531 -8.510599 0.258226 116.689552 -0.187944 0.175971 -86.126038 9.163103 -9.834505 -17.769735 0.763642 1.838951 -1.000002 0.0 0.0 
0.0 0.0 0.0 0.0 -0.0 0.0 -0.697237 48.093094 -1.229003 94.247551 -67.612823 86.012268 7.284054 0.1789 0.376423 -6.410792 -0.393265 0.569051 15.995965 -1.285887 -2.070431 20.19865 0.669671 2.084851 -2.711499 -0.292264 1.263682 -24.41419 3.968107 0.281048 6e-06 0.0 -0.0 -0.201765 -0.145231 0.031826 -0.329826 0.013534 0.017272 -0.359253 -0.303554 0.037258 -48.214844 -70.778091 50.773148 96.250839 -8.986397 -34.239559 6.841362 -0.327717 0.008315 59.838276 72.719292 54.294891 17.636625 -26.322731 52.41119 -19.46666 -14.395596 29.410393 -1e-06 -8.774821 -2e-06 15.128173 -17.936005 6.612027 -0.609776 -1.795654 -3.889327 -4.807087 -11.046811 -2.937851 3e-06 -20.976021 2e-06 -5.019969 -25.03356 -4.031883 6e-06 -1e-06 1e-06 -10.634533 -5.68697 -3.565587 10.573274 -17.922951 -3.113901 3e-06 -13.821209 -1e-06 -0.501776 -31.181501 -4.027016 -9.963813 -57.947994 6.386367 -13.982714 -7.150198 -2.875041 13.772729 -8.401491 -3.218241 0.347734 -34.211555 0.771653 -0.963029 -17.73337 2.62102 0.0 -0.0 -0.0 -17.346416 -20.095217 -4.201782 21.757555 -1.638374 3.866428 2e-06 -6.338823 0.0 -1.697588 -22.591742 -6.194006 -1e-06 -6e-06 -2e-06 134.318039 -66.023933 48.041069 98.627403 -8.940181 -22.620258 7.695099 -0.641551 -0.055357 37.003582 73.195038 32.625515 22.182117 -20.375898 49.933327 -16.701815 -16.743532 28.476532 -2e-06 -12.690603 -0.0 16.639301 -17.406248 2.498142 -0.105919 -1.513855 -4.275882 -5.039042 -5.612873 -2.953556 4e-06 -11.020524 -2e-06 -6.111299 -15.89533 -3.84047 -0.0 -2e-06 -1e-06 -10.283371 -5.680288 -4.341838 11.028296 -11.302407 -2.372634 -1.384269 -14.238582 -6.320121 -0.625439 -26.924194 -3.827601 -4.504004 -49.41288 -3.531894 -13.708526 -7.363476 -3.720939 18.141151 -14.052739 -3.242675 5e-06 -18.787277 -2e-06 -0.429713 -8.456044 2.555504 0.0 2e-06 0.0 -15.923536 -20.09449 -5.473582 30.419214 -7.190826 1.735927 4e-06 -8.162926 -1e-06 -1.861903 -22.861469 -6.167942 -1e-06 -4e-06 -1e-06 106.708618 -4.70789 5.501404 119.332596 -0.328868 0.268532 -102.661674 5.685402 1.18632 -25.380297 1.697948 1.448296 -0.999999 -0.0 -0.0 -72.67971 -8.542257 0.270658 116.623871 -0.182976 0.178328 -86.196365 9.213875 -9.981974 -17.932796 0.758928 1.847577 -1.000002 0.0 -0.0 
